<svg width="304" height="213" viewBox="0 0 304 213" fill="none" xmlns="http://www.w3.org/2000/svg">
<g filter="url(#filter0_d_15_79)">
<path d="M277.268 66.8049C303.434 99.4522 298.183 147.125 265.541 173.291C249.31 186.3 229.361 191.541 210.192 189.51L210.189 189.513C178.115 186.117 175.968 185.411 138.183 197.649C100.847 210.594 57.8238 199.532 31.6962 166.936C-1.50032 125.523 5.16115 65.032 46.5778 31.8379C76.823 7.59465 117.239 4.61231 149.77 20.8961C185.695 38.0291 187.894 37.6078 220.16 38.4591L220.161 38.4647C241.655 39.0425 262.766 48.7143 277.268 66.8049Z" fill="#99BC08"/>
</g>
<defs>
<filter id="filter0_d_15_79" x="0.575806" y="0.719482" width="303.34" height="212.214" filterUnits="userSpaceOnUse" color-interpolation-filters="sRGB">
<feFlood flood-opacity="0" result="BackgroundImageFix"/>
<feColorMatrix in="SourceAlpha" type="matrix" values="0 0 0 0 0 0 0 0 0 0 0 0 0 0 0 0 0 0 127 0" result="hardAlpha"/>
<feOffset/>
<feGaussianBlur stdDeviation="5"/>
<feComposite in2="hardAlpha" operator="out"/>
<feColorMatrix type="matrix" values="0 0 0 0 0 0 0 0 0 0 0 0 0 0 0 0 0 0 0.25 0"/>
<feBlend mode="normal" in2="BackgroundImageFix" result="effect1_dropShadow_15_79"/>
<feBlend mode="normal" in="SourceGraphic" in2="effect1_dropShadow_15_79" result="shape"/>
</filter>
</defs>
</svg>
