<svg width="116" height="116" viewBox="0 0 116 116" fill="none" xmlns="http://www.w3.org/2000/svg">
<g filter="url(#filter0_d_15_82)">
<path d="M106 58C106 31.4903 84.5097 10 58 10C31.4903 10 10 31.4903 10 58C10 84.5097 31.4903 106 58 106C84.5097 106 106 84.5097 106 58Z" fill="#0DC143"/>
</g>
<path d="M79.5015 36.423C74.3555 31.1256 67.2421 28.25 59.9771 28.25C44.5393 28.25 32.1285 40.8122 32.2799 56.0986C32.2799 60.9418 33.6421 65.6338 35.9123 69.8716L31.9771 84.25L46.6583 80.4662C50.7447 82.7364 55.2853 83.796 59.8257 83.796C75.1123 83.796 87.5231 71.2338 87.5231 55.9472C87.5231 48.531 84.6475 41.569 79.5015 36.423ZM59.9771 79.104C55.8907 79.104 51.8041 78.0446 48.3231 75.9256L47.4149 75.4716L38.6367 77.7418L40.9069 69.1148L40.3015 68.2068C33.6421 57.4608 36.8203 43.2338 47.7177 36.5744C58.6149 29.9149 72.6907 33.0932 79.3501 43.9906C86.0095 54.8878 82.8313 68.9636 71.9339 75.623C68.4529 77.8932 64.2149 79.104 59.9771 79.104ZM73.2961 62.304L71.6312 61.5472C71.6312 61.5472 69.2095 60.4878 67.6961 59.731C67.5447 59.731 67.3932 59.5798 67.2421 59.5798C66.7878 59.5798 66.4852 59.731 66.1824 59.8824C66.1824 59.8824 66.0313 60.0338 63.9123 62.4554C63.7609 62.7582 63.4583 62.9094 63.1555 62.9094H63.0041C62.8529 62.9094 62.5501 62.7582 62.3987 62.6068L61.642 62.304C59.9771 61.5472 58.4637 60.6392 57.2529 59.4284C56.9501 59.1256 56.496 58.823 56.1933 58.5202C55.1339 57.4608 54.0745 56.25 53.3177 54.8878L53.1663 54.5852C53.0149 54.4338 53.0149 54.2824 52.8637 53.9798C52.8637 53.677 52.8637 53.3744 53.0149 53.223C53.0149 53.223 53.6203 52.4662 54.0745 52.0122C54.3771 51.7094 54.5285 51.2554 54.8313 50.9528C55.1339 50.4986 55.2853 49.8932 55.1339 49.4392C54.9825 48.6824 53.1663 44.596 52.7123 43.6878C52.4095 43.2338 52.1069 43.0824 51.6529 42.931H51.1987C50.8961 42.931 50.4421 42.931 49.9879 42.931C49.6853 42.931 49.3825 43.0824 49.0799 43.0824L48.9284 43.2338C48.6257 43.3852 48.323 43.6878 48.0203 43.8392C47.7177 44.1418 47.5663 44.4446 47.2637 44.7472C46.2041 46.1094 45.5986 47.7744 45.5986 49.4392C45.5986 50.65 45.9015 51.8608 46.3555 52.9202L46.5069 53.3744C47.8691 56.25 49.6853 58.823 52.1069 61.0932L52.7123 61.6986C53.1663 62.1528 53.6203 62.4554 53.9231 62.9094C57.1015 65.6338 60.7339 67.6014 64.8203 68.6608C65.2745 68.8122 65.8799 68.8122 66.3339 68.9636C66.7879 68.9636 67.3932 68.9636 67.8475 68.9636C68.604 68.9636 69.5123 68.6608 70.1177 68.3582C70.5717 68.0554 70.8744 68.0554 71.177 67.7528L71.4799 67.45C71.7825 67.1472 72.0852 66.996 72.3878 66.6932C72.6906 66.3906 72.9933 66.0878 73.1447 65.7852C73.4475 65.1798 73.5987 64.423 73.7501 63.6662C73.7501 63.3636 73.7501 62.9094 73.7501 62.6068C73.7501 62.6068 73.5987 62.4554 73.2961 62.304Z" fill="white"/>
<defs>
<filter id="filter0_d_15_82" x="0" y="0" width="116" height="116" filterUnits="userSpaceOnUse" color-interpolation-filters="sRGB">
<feFlood flood-opacity="0" result="BackgroundImageFix"/>
<feColorMatrix in="SourceAlpha" type="matrix" values="0 0 0 0 0 0 0 0 0 0 0 0 0 0 0 0 0 0 127 0" result="hardAlpha"/>
<feOffset/>
<feGaussianBlur stdDeviation="5"/>
<feComposite in2="hardAlpha" operator="out"/>
<feColorMatrix type="matrix" values="0 0 0 0 0 0 0 0 0 0 0 0 0 0 0 0 0 0 0.25 0"/>
<feBlend mode="normal" in2="BackgroundImageFix" result="effect1_dropShadow_15_82"/>
<feBlend mode="normal" in="SourceGraphic" in2="effect1_dropShadow_15_82" result="shape"/>
</filter>
</defs>
</svg>
